<?xml version="1.0" encoding="UTF-8" standalone="no"?>
<!-- Created with Inkscape (http://www.inkscape.org/) -->

<svg
   xmlns:dc="http://purl.org/dc/elements/1.1/"
   xmlns:cc="http://creativecommons.org/ns#"
   xmlns:rdf="http://www.w3.org/1999/02/22-rdf-syntax-ns#"
   xmlns:svg="http://www.w3.org/2000/svg"
   xmlns="http://www.w3.org/2000/svg"
   xmlns:sodipodi="http://sodipodi.sourceforge.net/DTD/sodipodi-0.dtd"
   xmlns:inkscape="http://www.inkscape.org/namespaces/inkscape"
   width="240"
   height="240"
   viewBox="0 0 63.499999 63.500002"
   version="1.1"
   id="svg87"
   inkscape:version="0.92.5 (2060ec1f9f, 2020-04-08)"
   sodipodi:docname="panda_sit.svg">
  <defs
     id="defs81" />
  <sodipodi:namedview
     id="base"
     pagecolor="#ffffff"
     bordercolor="#666666"
     borderopacity="1.0"
     inkscape:pageopacity="0.0"
     inkscape:pageshadow="2"
     inkscape:zoom="2.8"
     inkscape:cx="74.733971"
     inkscape:cy="115.28419"
     inkscape:document-units="px"
     inkscape:current-layer="layer1"
     showgrid="true"
     units="px"
     showguides="false"
     inkscape:window-width="1848"
     inkscape:window-height="1016"
     inkscape:window-x="72"
     inkscape:window-y="27"
     inkscape:window-maximized="1">
    <inkscape:grid
       type="xygrid"
       id="grid89" />
  </sodipodi:namedview>
  <metadata
     id="metadata84">
    <rdf:RDF>
      <cc:Work
         rdf:about="">
        <dc:format>image/svg+xml</dc:format>
        <dc:type
           rdf:resource="http://purl.org/dc/dcmitype/StillImage" />
        <dc:title></dc:title>
      </cc:Work>
    </rdf:RDF>
  </metadata>
  <g
     inkscape:label="Layer 1"
     inkscape:groupmode="layer"
     id="layer1"
     transform="translate(0,-233.49999)">
    <path
       style="fill:#f9f9f9;stroke:#b3b3b3;stroke-width:0.26458335px;stroke-linecap:butt;stroke-linejoin:miter;stroke-opacity:1"
       d="m 29.250268,289.2718 c -1.02823,0.20564 -2.85318,0.94766 -2.85318,0.94766 0,0 -3.70341,-3.07298 -5.25859,-5.58932 -3.972541,-5.98638 -2.884521,-16.98279 1.28984,-22.19193 0,0 3.00771,2.68631 5.12631,3.43959 1.48828,0.52916 5.45701,0.52916 5.45701,0.52916 0,0 3.96875,0 5.457039,-0.52916 2.118601,-0.75328 5.12631,-3.43959 5.12631,-3.43959 4.17436,5.20914 5.26238,16.20555 1.289841,22.19193 -1.555181,2.51634 -5.258591,5.58932 -5.258591,5.58932 0,0 -1.71718,-0.72588 -2.853179,-0.94766 -1.13601,-0.22178 -2.501451,0.15318 -3.761399,0.15391 -1.259951,7.9e-4 -2.522151,-0.38818 -3.761411,-0.15391 z"
       id="path76-5-1"
       inkscape:connector-curvature="0"
       sodipodi:nodetypes="ccccscsccczzc"
       inkscape:export-xdpi="96"
       inkscape:export-ydpi="96" />
    <path
       style="fill:#333333;stroke:#000000;stroke-width:0.26458335px;stroke-linecap:butt;stroke-linejoin:miter;stroke-opacity:1"
       d="m 29.572088,289.16113 c 0,0 -2.11667,0 -3.70417,0.52917 -0.29985,-0.10585 -0.26458,-1.32292 -0.26458,-1.32292 l -0.52917,0.52917 v -2.11667 l -0.79375,0.79375 0.79375,-3.175 c 0.26459,-1.85208 0.27293,-3.43326 -0.52916,-5.29167 -0.819,-1.07433 -3.21534,-2.39482 -3.96875,-2.38125 -1.146341,0.0206 -2.323031,0.55567 -3.175001,1.32292 -0.82117,0.73951 -1.5875,2.91042 -1.5875,2.91042 0,0 0.52916,1.05833 1.5875,2.38125 -1.5875,-1.85209 -2.55735,-2.86342 -4.23334,-3.70417 -1.12869,-0.5662 -2.468849,-1.05556 -3.7041591,-0.79375 -1.173511,0.24872 -1.820381,0.30357 -2.36472,1.37253 -0.60031,1.17887 -0.74716,3.04986 -0.3638,4.31601 0.46074,1.52173 1.433159,3.29076 2.315099,4.61368 0.881951,1.32292 1.8784011,2.52806 3.0592501,3.45611 1.08538,0.85302 2.15125,1.58303 3.43958,2.11667 0.91099,0.37734 1.96032,0.41857 2.9455,0.37716 0.73092,-0.0307 1.55242,-0.64174 2.175131,-1.38138 1.22533,-1.39966 2.88673,-2.59384 4.40437,-3.22911 1.39476,-0.57088 4.49792,-1.32292 4.49792,-1.32292 z"
       id="path186-9"
       inkscape:connector-curvature="0"
       sodipodi:nodetypes="ccccccccssccssssssssccc"
       inkscape:export-xdpi="96"
       inkscape:export-ydpi="96" />
    <path
       style="fill:#f9f9f9;stroke:#b3b3b3;stroke-width:0.26458335px;stroke-linecap:butt;stroke-linejoin:miter;stroke-opacity:1"
       d="m 11.051257,283.60488 c 1.12587,0.63746 2.28319,1.97138 3.175,3.175 0.89181,1.20362 1.70289,2.75101 2.11666,3.96875 0.39769,1.60778 1.05834,2.38125 0.26459,3.175 -0.79375,0.52917 -2.53372,-0.40541 -3.43959,-1.05833 -0.90587,-0.65292 -1.90037,-1.80139 -2.64583,-2.64584 -1.3229201,-1.5875 -3.0586501,-3.55343 -3.1749991,-5.82083 -0.0987,-2.68537 2.077039,-1.71193 3.7041691,-0.79375 z"
       id="path188-2"
       inkscape:connector-curvature="0"
       sodipodi:nodetypes="czcczccc"
       inkscape:export-xdpi="96"
       inkscape:export-ydpi="96" />
    <path
       style="fill:#333333;stroke:#000000;stroke-width:0.26458335px;stroke-linecap:butt;stroke-linejoin:miter;stroke-opacity:1"
       d="m 36.451307,289.16113 c 0,0 2.11667,0 3.70417,0.52917 0.299849,-0.10585 0.26458,-1.32292 0.26458,-1.32292 l 0.52917,0.52917 v -2.11667 l 0.79375,0.79375 -0.79375,-3.175 c -0.264589,-1.85208 -0.272939,-3.43326 0.529161,-5.29167 0.818999,-1.07433 3.215338,-2.39482 3.96875,-2.38125 1.146339,0.0206 2.323028,0.55567 3.175,1.32292 0.821169,0.73951 1.5875,2.91042 1.5875,2.91042 0,0 -0.529161,1.05833 -1.5875,2.38125 1.5875,-1.85209 2.557344,-2.86342 4.233333,-3.70417 1.128692,-0.5662 2.468841,-1.05556 3.704141,-0.79375 1.173511,0.24872 1.82037,0.30357 2.364711,1.37253 0.600299,1.17887 0.747159,3.04986 0.363799,4.31601 -0.46074,1.52173 -1.43315,3.29076 -2.315088,4.61368 -0.881941,1.32292 -1.878391,2.52806 -3.059232,3.45611 -1.08539,0.85302 -2.15125,1.58303 -3.439575,2.11667 -0.91099,0.37734 -1.960319,0.41857 -2.945501,0.37716 -0.730919,-0.0307 -1.552419,-0.64174 -2.175129,-1.38138 -1.22533,-1.39966 -2.886739,-2.59384 -4.40437,-3.22911 -1.394759,-0.57088 -4.49792,-1.32292 -4.49792,-1.32292 z"
       id="path186-2-8"
       inkscape:connector-curvature="0"
       sodipodi:nodetypes="ccccccccssccssssssssccc"
       inkscape:export-xdpi="96"
       inkscape:export-ydpi="96" />
    <path
       style="fill:#333333;stroke:#000000;stroke-width:0.26458335px;stroke-linecap:butt;stroke-linejoin:miter;stroke-opacity:1"
       d="m 32.958667,272.2278 -0.502699,-2.11668 c 0,0 -0.26458,0.34727 -0.26458,0.52918 0,0.25907 -0.26459,-1.05834 -0.26459,-1.05834 l -0.79375,1.5875 -0.21913,-1.39308 -1.15944,2.73622 -0.20893,-0.81398 -0.26458,1.5875 -0.42994,-1.00872 -0.0992,1.53789 -0.52917,-1.32292 -1.05833,1.32292 -0.79375,-2.38125 -1.32292,1.32292 -0.39772,-2.82355 -0.66061,1.23605 -0.79375,-2.64584 -0.52917,0.79375 v -2.38125 l -0.79375,0.79375 v -2.11666 l -1.05833,0.52916 0.29944,-1.79666 -1.357771,-0.0554 c 0,0 0.63844,-1.30236 1.232351,-2.32577 0.31921,-0.55006 1.67806,-2.17215 1.67806,-2.17215 1.98831,1.65095 2.74885,2.36787 5.29167,2.64584 1.5875,0.26456 3.4131,0.52914 5.002669,0.52914 1.850011,0 3.394601,-0.3601 5.077999,-0.52915 2.542821,-0.27797 3.30336,-0.99489 5.291662,-2.64584 0,0 1.35886,1.62209 1.67808,2.17215 0.5939,1.02341 1.232339,2.32577 1.232339,2.32577 l -1.35777,0.0554 0.299439,1.79666 -1.058338,-0.52916 v 2.11666 l -0.79375,-0.79375 v 2.38125 l -0.529162,-0.79375 -0.79375,2.64584 -0.660598,-1.23605 -0.39774,2.82355 -1.322912,-1.32292 -0.79375,2.38125 -1.058338,-1.32292 -0.529151,1.32292 -0.0992,-1.53789 -0.429959,1.00872 -0.26457,-1.5875 -0.208931,0.81398 -1.15943,-2.73622 -0.219139,1.39308 -0.79375,-1.5875 c 0,0 -0.264591,1.31741 -0.264591,1.05834 0,-0.18191 -0.264589,-0.52918 -0.264589,-0.52918 l -0.555651,2.11668 z"
       id="path126-5-2"
       inkscape:connector-curvature="0"
       sodipodi:nodetypes="ccsccccccccccccccccccccccsccsccsccccccccccccccccccccccsccc"
       inkscape:export-xdpi="96"
       inkscape:export-ydpi="96" />
    <path
       style="fill:#333333;stroke:#000000;stroke-width:0.26458335px;stroke-linecap:butt;stroke-linejoin:miter;stroke-opacity:1"
       d="m 16.805937,265.08405 c 0,0 -2.43347,2.46703 -3.45093,3.94536 -0.33542,0.48736 -0.98084,1.61089 -0.98084,1.61089 l 0.52917,0.26458 c -0.79579,0.99387 -1.05833,2.11667 -1.05833,3.96875 h 0.26458 c 0.52917,5.29167 3.43958,7.67292 10.318751,7.14375 2.91042,-0.52916 2.86081,-1.27331 2.86081,-1.27331 l -1.00873,-0.0496 c 1.05834,-0.52917 1.85209,-1.58751 2.11667,-2.64584 l -0.52917,-0.26457 c 0,0 -0.64574,-2.89954 -1.5875,-3.96876 -0.60017,-0.68139 -1.557,-0.94198 -2.38125,-1.32292 -0.68401,-0.31613 -1.587501,-1.5875 -1.587501,-1.5875 -0.31878,-0.68445 -0.53904,-1.37036 -0.52916,-2.91042 0,0 0,1.85209 0.52916,2.91042 1.322921,-1.05833 1.587501,-1.5875 2.116671,-2.91042 0,0 0.79375,-1.85208 1.47175,-2.83598 0.69522,-1.00889 2.23242,-2.98485 2.23242,-2.98485 -2.11667,-1.05833 -3.43959,-2.38123 -3.43959,-2.38123 0,0 -3.426321,2.60732 -5.886981,5.29167 z"
       id="path169-2"
       inkscape:connector-curvature="0"
       sodipodi:nodetypes="cscccccscccssccccscccc"
       inkscape:export-xdpi="96"
       inkscape:export-ydpi="96" />
    <path
       style="fill:#333333;stroke:#000000;stroke-width:0.26458335px;stroke-linecap:butt;stroke-linejoin:miter;stroke-opacity:1"
       d="m 49.217498,265.08402 c 0,0 2.433466,2.46703 3.450924,3.94536 0.33542,0.48736 0.980842,1.61089 0.980842,1.61089 l -0.529172,0.26458 c 0.79579,0.99387 1.058331,2.11667 1.058331,3.96875 h -0.264581 c -0.52917,5.29167 -3.439576,7.67292 -10.318745,7.14375 -2.910419,-0.52916 -2.86081,-1.27331 -2.86081,-1.27331 l 1.008729,-0.0496 c -1.058338,-0.52917 -1.852088,-1.58751 -2.116669,-2.64584 l 0.529169,-0.26457 c 0,0 0.645732,-2.89954 1.5875,-3.96876 0.600171,-0.68139 1.557002,-0.94198 2.38125,-1.32292 0.684012,-0.31613 1.5875,-1.5875 1.5875,-1.5875 0.318781,-0.68445 0.539041,-1.37036 0.529162,-2.91042 0,0 0,1.85209 -0.529162,2.91042 -1.322919,-1.05833 -1.5875,-1.5875 -2.116669,-2.91042 0,0 -0.79375,-1.85208 -1.47175,-2.83598 -0.695219,-1.00889 -2.232419,-2.98485 -2.232419,-2.98485 2.116669,-1.05833 3.439588,-2.38123 3.439588,-2.38123 0,0 3.426312,2.60732 5.886982,5.29167 z"
       id="path169-6-5"
       inkscape:connector-curvature="0"
       sodipodi:nodetypes="cscccccscccssccccscccc"
       inkscape:export-xdpi="96"
       inkscape:export-ydpi="96" />
    <path
       style="fill:#333333;stroke:#000000;stroke-width:0.26458335px;stroke-linecap:butt;stroke-linejoin:miter;stroke-opacity:1"
       d="m 24.657168,240.92579 c 0,0 -0.39852,-3.45433 -1.39242,-4.55441 -0.9939,-1.10008 -1.98647,-1.35767 -3.479451,-1.42627 -1.49299,-0.0686 -3.60866,0.53439 -4.73007,1.7228 -1.12143,1.18841 -1.60326,3.18215 -1.6229,4.64626 -0.0196,1.4641 0.78204,2.93304 1.41337,3.71798 0.63133,0.78494 1.09344,0.86637 1.72925,1.13135 0.83814,0.3493 2.66399,0.56889 2.66399,0.56889 z"
       id="path3829-7"
       inkscape:connector-curvature="0"
       sodipodi:nodetypes="czzzzzscc"
       inkscape:export-xdpi="96"
       inkscape:export-ydpi="96" />
    <path
       style="fill:#333333;stroke:#000000;stroke-width:0.26458335px;stroke-linecap:butt;stroke-linejoin:miter;stroke-opacity:1"
       d="m 41.274008,240.9478 c 0,0 0.398529,-3.45432 1.39242,-4.55441 0.993899,-1.10007 1.986471,-1.35767 3.479451,-1.42626 1.492988,-0.0686 3.608657,0.53439 4.730067,1.7228 1.121426,1.1884 1.603246,3.18215 1.622896,4.64626 0.01961,1.46409 -0.782039,2.93302 -1.41337,3.71797 -0.631325,0.78495 -1.093435,0.86637 -1.729234,1.13135 -0.83815,0.34931 -2.663989,0.56889 -2.663989,0.56889 z"
       id="path3829-2-9"
       inkscape:connector-curvature="0"
       sodipodi:nodetypes="czzzzzscc"
       inkscape:export-xdpi="96"
       inkscape:export-ydpi="96" />
    <path
       style="fill:#f9f9f9;stroke:#b3b3b3;stroke-width:0.26458335px;stroke-linecap:butt;stroke-linejoin:miter;stroke-opacity:1"
       d="m 28.681318,264.04268 c -2.16841,-0.30541 -2.48939,-0.2995 -3.50041,-0.58986 -1.01101,-0.29036 -2.56568,-1.15231 -2.56568,-1.15231 l 0.38679,1.26512 c 0,0 -1.11068,-0.75041 -1.47623,-1.20871 -0.36554,-0.45829 -0.71716,-1.44078 -0.71716,-1.44078 0,0 -0.021,0.83643 0.13375,1.34248 -1.158701,-0.60019 -1.700671,-0.89961 -2.390011,-1.48269 -0.77265,-0.78656 -1.72926,-1.13135 -2.01771,-2.97985 -0.0983,0.5834 -0.11927,1.41981 -0.11927,1.41981 0,0 -0.52493,-0.0278 -0.73813,-0.60435 -0.21319,-0.5766 0.16119,-3.09267 0.16119,-3.09267 l -0.4706,2.08058 c 0,0 -0.43672,-0.27171 -0.56246,-0.93473 -0.12574,-0.66302 0.0633,-2.8721 0.53345,-4.58986 0.47012,-1.71775 2.48028,-5.46172 2.48028,-5.46172 l 1.26511,-0.38679 -2.8606,0.5979 c 0,0 1.76191,-1.41062 2.55118,-1.60999 0.78926,-0.19937 1.925861,-0.0354 1.925861,-0.0354 l -1.300561,-1.53908 c 0,0 0.7293,-0.13639 1.089451,-0.0564 0.36014,0.08 0.99114,0.52699 0.99114,0.52699 l -0.79453,-1.69379 1.32153,0.70266 -0.30943,-1.01209 0.99114,0.527 -0.5415,-1.77116 1.57453,0.62531 c 0,0 -0.1662,-0.89394 -0.13375,-1.34247 0.0371,-0.51292 0.37228,-1.49719 0.37228,-1.49719 l 0.61885,2.02418 -0.13376,-1.34247 c 0,0 1.45655,-1.38766 4.49799,-2.48186 3.04144,-1.0942 5.388201,-0.86247 8.04308,0.022 2.65489,0.88449 4.497999,2.48186 4.497999,2.48186 l -0.133779,1.34247 0.618861,-2.02418 c 0,0 0.335219,0.98426 0.372298,1.49718 0.0324,0.44854 -0.133761,1.34248 -0.133761,1.34248 l 1.574541,-0.62532 -0.541499,1.77116 0.991129,-0.52699 -0.309419,1.01209 1.32152,-0.70266 -0.79452,1.6938 c 0,0 0.630999,-0.44704 0.991129,-0.527 0.360129,-0.08 1.089451,0.0564 1.089451,0.0564 l -1.30056,1.53908 c 0,0 1.136611,-0.16396 1.925871,0.0355 0.789268,0.19937 2.551178,1.60998 2.551178,1.60998 l -2.860608,-0.59789 1.265107,0.38679 c 0,0 2.010172,3.74397 2.480281,5.46172 0.470165,1.71775 0.659157,3.92683 0.533445,4.58987 -0.12574,0.66301 -0.562446,0.93472 -0.562446,0.93472 l -0.470598,-2.08059 c 0,0 0.374369,2.51608 0.161189,3.09268 -0.213198,0.57659 -0.738129,0.60435 -0.738129,0.60435 0,0 -0.0209,-0.83642 -0.119279,-1.41981 -0.288452,1.8485 -1.24505,2.19329 -2.01771,2.97985 -0.689333,0.58307 -1.231302,0.8825 -2.39,1.48269 0.15471,-0.50605 0.133739,-1.34248 0.133739,-1.34248 0,0 -0.35161,0.98249 -0.717151,1.44078 -0.365551,0.4583 -1.476229,1.20871 -1.476229,1.20871 l 0.386778,-1.26512 c 0,0 -1.554668,0.86194 -2.565678,1.15231 -1.011002,0.29038 -1.258019,0.25677 -3.5004,0.58985 -2.242381,0.33308 -6.40015,0.2834 -8.56856,-0.022 z"
       id="path3818-0"
       inkscape:connector-curvature="0"
       sodipodi:nodetypes="zzcczccccczcczzccczcczcccccccsccczzcccsccccccczcczccczzcczccccczcczzz"
       inkscape:export-xdpi="96"
       inkscape:export-ydpi="96" />
    <path
       style="fill:#333333;stroke:#000000;stroke-width:0.26458335px;stroke-linecap:butt;stroke-linejoin:miter;stroke-opacity:1"
       d="m 26.049588,245.48019 c -1.07841,0.95456 -3.26375,3.70956 -3.97746,5.08945 -0.7137,1.37989 -0.8244,1.82338 -0.82192,2.74134 0.002,0.91795 0.25507,1.90123 0.77357,2.53022 1.52217,1.78411 3.14752,0.71147 4.61081,-0.30297 0.9262,-0.63751 2.14499,-1.45439 2.82514,-2.52377 1.20088,-2.19788 1.36987,-4.5689 0.26593,-7.27479 -1.19695,-1.88736 -2.59493,-1.20459 -3.67607,-0.25948 z"
       id="path3943-6"
       inkscape:connector-curvature="0"
       sodipodi:nodetypes="czzccccc"
       inkscape:export-xdpi="96"
       inkscape:export-ydpi="96" />
    <ellipse
       style="fill:#ffffff;fill-opacity:1;stroke:#333333;stroke-width:0.27947694;stroke-opacity:1"
       id="path3945-06"
       ry="2.8297248"
       rx="2.8982453"
       cy="247.99951"
       cx="-47.923214"
       transform="rotate(-17)"
       inkscape:export-xdpi="96"
       inkscape:export-ydpi="96" />
    <path
       style="fill:#1a1a1a;fill-opacity:1;stroke:#5584b3;stroke-width:0.5;stroke-opacity:1"
       d="m 28.747571,250.11155 a 1.9789152,2.0268338 73 0 1 -1.3597,2.48503 1.9789152,2.0268338 73 0 1 -2.516844,-1.29985 1.9789152,2.0268338 73 0 1 1.359687,-2.48504 1.9789152,2.0268338 73 0 1 2.516857,1.29986 z"
       id="path3945-0-2"
       inkscape:connector-curvature="0"
       inkscape:export-xdpi="96"
       inkscape:export-ydpi="96" />
    <path
       style="fill:none;stroke:#000000;stroke-width:0.26458335px;stroke-linecap:butt;stroke-linejoin:miter;stroke-opacity:1"
       d="m 24.355778,246.27471 c 1.23769,-1.1507 3.20463,-3.21088 4.67367,-2.81224 0.91378,0.27397 1.04754,1.61643 1.04754,1.61643"
       id="path3962-61"
       inkscape:connector-curvature="0"
       sodipodi:nodetypes="ccc"
       inkscape:export-xdpi="96"
       inkscape:export-ydpi="96" />
    <path
       style="fill:#333333;stroke:#000000;stroke-width:0.26458335px;stroke-linecap:butt;stroke-linejoin:miter;stroke-opacity:1"
       d="m 39.495698,245.25276 c 1.0784,0.95456 3.26375,3.70956 3.97745,5.08945 0.713711,1.37989 0.82441,1.82338 0.821931,2.74134 -0.0021,0.91795 -0.255082,1.90123 -0.773571,2.53022 -1.522179,1.78411 -3.147531,0.71147 -4.610811,-0.30297 -0.926201,-0.63751 -2.144999,-1.45439 -2.82515,-2.52377 -1.200869,-2.19788 -1.369869,-4.5689 -0.265919,-7.27479 1.196948,-1.88736 2.59493,-1.20459 3.67607,-0.25948 z"
       id="path3943-3-7"
       inkscape:connector-curvature="0"
       sodipodi:nodetypes="czzccccc"
       inkscape:export-xdpi="96"
       inkscape:export-ydpi="96" />
    <ellipse
       style="fill:#ffffff;fill-opacity:1;stroke:#333333;stroke-width:0.27947694;stroke-opacity:1"
       id="path3945-6-9"
       ry="2.8297248"
       rx="2.8982451"
       cy="228.61845"
       cx="-110.53795"
       transform="matrix(-0.95630476,-0.29237168,-0.29237168,0.95630476,0,0)"
       inkscape:export-xdpi="96"
       inkscape:export-ydpi="96" />
    <path
       style="fill:#1a1a1a;fill-opacity:1;stroke:#5584b3;stroke-width:0.5;stroke-opacity:1"
       d="m 36.797721,249.88412 a 2.0268338,1.9789152 16.999999 0 0 1.359686,2.48503 2.0268338,1.9789152 16.999999 0 0 2.516849,-1.29986 2.0268338,1.9789152 16.999999 0 0 -1.359691,-2.48503 2.0268338,1.9789152 16.999999 0 0 -2.516844,1.29986 z"
       id="path3945-0-0-2"
       inkscape:connector-curvature="0"
       inkscape:export-xdpi="96"
       inkscape:export-ydpi="96" />
    <path
       style="fill:none;stroke:#000000;stroke-width:0.26458335px;stroke-linecap:butt;stroke-linejoin:miter;stroke-opacity:1"
       d="m 41.189497,246.04728 c -1.237689,-1.1507 -3.20462,-3.21088 -4.67366,-2.81224 -0.913779,0.27397 -1.047549,1.61643 -1.047549,1.61643"
       id="path3962-6-0"
       inkscape:connector-curvature="0"
       sodipodi:nodetypes="ccc"
       inkscape:export-xdpi="96"
       inkscape:export-ydpi="96" />
    <path
       style="fill:#f9f9f9;stroke:#b3b3b3;stroke-width:0.26458335px;stroke-linecap:butt;stroke-linejoin:miter;stroke-opacity:1"
       d="m 31.169628,264.94196 c -1.93073,-0.40965 -1.90492,-0.80098 -1.90492,-0.80098 0,0 -3.34971,-0.51374 -4.39324,-1.70025 -1.04352,-1.1865 -1.52119,-3.11264 -1.1394,-4.63176 0.3818,-1.51911 1.57155,-2.51106 3.09913,-3.43755 3.60836,-1.62548 8.325749,-1.96947 11.81903,-0.008 1.527579,0.92649 2.717321,1.91844 3.09912,3.43755 0.381831,1.51911 -0.0959,3.44526 -1.13941,4.63176 -1.043511,1.18651 -4.393231,1.70025 -4.393231,1.70025 0,0 -0.007,0.3437 -1.904918,0.80098 -1.898001,0.45727 -1.211411,0.41731 -3.142161,0.008 z"
       id="path3997-2"
       inkscape:connector-curvature="0"
       sodipodi:nodetypes="zczzcczzczz"
       inkscape:export-xdpi="96"
       inkscape:export-ydpi="96" />
    <path
       style="fill:#333333;stroke:#000000;stroke-width:0.26458335px;stroke-linecap:butt;stroke-linejoin:miter;stroke-opacity:1"
       d="m 33.589928,258.84717 c 0.8547,-0.14379 2.212031,-0.10637 2.634531,-0.71501 0.318108,-0.4582 0.283628,-0.94818 -0.0536,-1.39233 -0.86705,-0.80699 -3.348589,-0.88 -3.348589,-0.88 0,0 -2.42831,-0.14938 -3.32746,0.88762 -0.33718,0.44414 -0.62468,1.01149 -0.30659,1.46969 0.42252,0.60864 2.03288,0.49386 2.88757,0.63765 0.52911,0.089 0.815029,0.85751 0.815029,0.85751 0.0682,-0.34137 0.54904,-0.83193 0.699101,-0.86513 z"
       id="path4014-6-3"
       inkscape:connector-curvature="0"
       sodipodi:nodetypes="csccccccc"
       inkscape:export-xdpi="96"
       inkscape:export-ydpi="96" />
    <path
       style="fill:#ff0000;stroke:#800000;stroke-width:0.26458335px;stroke-linecap:butt;stroke-linejoin:miter;stroke-opacity:1"
       d="m 33.003638,261.89119 c 0.583399,0.0983 1.321499,0.70266 2.43191,-0.19017 0.759068,-0.23207 1.501561,-0.39612 2.17079,-1.18669 0.17567,0.33038 0.35133,0.66076 0.35133,0.66076 l 0.0983,0.58342 c 0,0 -0.0864,-1.08388 -0.3165,-1.24763 -0.224351,-0.15963 -1.14519,-0.30597 -1.14519,-0.30597 l 1.0121,0.30942 c 0,0 -0.80844,0.725 -1.161971,0.89991 -0.602059,0.29776 -1.37192,0.25028 -2.001988,0.0176 -0.667002,-0.24638 -1.369502,-1.47352 -1.369502,-1.47352 l -0.104691,0.007 c 0,0 -0.702499,1.22714 -1.369498,1.47352 -0.63007,0.23268 -1.39993,0.28016 -2.00199,-0.0176 -0.35354,-0.17486 -1.16197,-0.89991 -1.16197,-0.89991 l 1.01209,-0.30942 c 0,0 -0.92083,0.14633 -1.14518,0.30598 -0.23013,0.16374 -0.31654,1.24761 -0.31654,1.24761 l 0.0983,-0.58341 c 0,0 0.17567,-0.33037 0.35133,-0.66076 0.48416,0.76314 1.47622,1.20869 1.72925,1.13133 0.63981,1.18776 2.3336,0.39325 2.839649,0.23853 z"
       id="path44-6-7"
       inkscape:connector-curvature="0"
       sodipodi:nodetypes="cccccsccssccssccsccccc"
       inkscape:export-xdpi="96"
       inkscape:export-ydpi="96" />
    <path
       style="fill:#f9f9f9;stroke:#b3b3b3;stroke-width:0.26458335px;stroke-linecap:butt;stroke-linejoin:miter;stroke-opacity:1"
       d="m 54.972122,283.60488 c -1.12586,0.63746 -2.283179,1.97138 -3.174989,3.175 -0.891805,1.20362 -1.702885,2.75101 -2.116656,3.96875 -0.39769,1.60778 -1.058339,2.38125 -0.264589,3.175 0.79375,0.52917 2.533714,-0.40541 3.439583,-1.05833 0.90587,-0.65292 1.900362,-1.80139 2.645821,-2.64584 1.322911,-1.5875 3.058631,-3.55343 3.174981,-5.82083 0.0987,-2.68537 -2.077029,-1.71193 -3.704151,-0.79375 z"
       id="path188-9-9"
       inkscape:connector-curvature="0"
       sodipodi:nodetypes="czcczccc"
       inkscape:export-xdpi="96"
       inkscape:export-ydpi="96" />
    <path
       style="fill:#ffffff;fill-rule:evenodd;stroke-width:0.26458335"
       id="path1156"
       sodipodi:type="arc"
       sodipodi:cx="25.60334"
       sodipodi:cy="249.73824"
       sodipodi:rx="0.66145831"
       sodipodi:ry="0.66145831"
       sodipodi:start="0"
       sodipodi:end="6.2792758"
       d="m 26.264798,249.73824 a 0.66145831,0.66145831 0 0 1 -0.660811,0.66145 0.66145831,0.66145831 0 0 1 -0.662104,-0.66016 0.66145831,0.66145831 0 0 1 0.659518,-0.66275 0.66145831,0.66145831 0 0 1 0.663392,0.65887 l -0.661453,0.003 z"
       inkscape:export-xdpi="96"
       inkscape:export-ydpi="96" />
    <path
       style="fill:#ffffff;fill-rule:evenodd;stroke-width:0.07937502"
       id="path1156-7"
       sodipodi:type="arc"
       sodipodi:cx="28.513758"
       sodipodi:cy="251.72261"
       sodipodi:rx="0.1984375"
       sodipodi:ry="0.1984375"
       sodipodi:start="0"
       sodipodi:end="6.2792758"
       d="m 28.712195,251.72261 a 0.1984375,0.1984375 0 0 1 -0.198243,0.19844 0.1984375,0.1984375 0 0 1 -0.198631,-0.19805 0.1984375,0.1984375 0 0 1 0.197855,-0.19883 0.1984375,0.1984375 0 0 1 0.199018,0.19766 l -0.198436,7.8e-4 z"
       inkscape:export-xdpi="96"
       inkscape:export-ydpi="96" />
    <path
       style="fill:#ffffff;fill-rule:evenodd;stroke-width:0.26458335"
       id="path1156-3"
       sodipodi:type="arc"
       sodipodi:cx="37.403481"
       sodipodi:cy="249.73824"
       sodipodi:rx="0.66145831"
       sodipodi:ry="0.66145831"
       sodipodi:start="0"
       sodipodi:end="6.2792758"
       d="m 38.064939,249.73824 a 0.66145831,0.66145831 0 0 1 -0.660812,0.66145 0.66145831,0.66145831 0 0 1 -0.662104,-0.66016 0.66145831,0.66145831 0 0 1 0.659518,-0.66275 0.66145831,0.66145831 0 0 1 0.663393,0.65887 l -0.661453,0.003 z"
       inkscape:export-xdpi="96"
       inkscape:export-ydpi="96" />
    <path
       style="fill:#ffffff;fill-rule:evenodd;stroke-width:0.07937502"
       id="path1156-7-6"
       sodipodi:type="arc"
       sodipodi:cx="40.313896"
       sodipodi:cy="251.72258"
       sodipodi:rx="0.1984375"
       sodipodi:ry="0.1984375"
       sodipodi:start="0"
       sodipodi:end="6.2792758"
       d="m 40.512334,251.72258 a 0.1984375,0.1984375 0 0 1 -0.198244,0.19844 0.1984375,0.1984375 0 0 1 -0.198631,-0.19805 0.1984375,0.1984375 0 0 1 0.197855,-0.19883 0.1984375,0.1984375 0 0 1 0.199018,0.19766 l -0.198436,7.8e-4 z"
       inkscape:export-xdpi="96"
       inkscape:export-ydpi="96" />
  </g>
</svg>
